{"title":"The Sighting 2015 Movies HDRip XviD ESubs AAC New +Sample ☻rDX☻","uid":15646046,"size":740117312,"categoryP":"video","categoryS":"movies","magnet":"?xt=urn:btih:2806935ba68d85db60f316f0a260a52e5b27a04f&amp;dn=The+Sighting+2015+Movies+HDRip+XviD+ESubs+AAC+New+%2BSample+%E2%98%BBrDX%E2%98%BB&amp;tr=udp%3A%2F%2Ftracker.leechers-paradise.org%3A6969&amp;tr=udp%3A%2F%2Fzer0day.ch%3A1337&amp;tr=udp%3A%2F%2Fopen.demonii.com%3A1337&amp;tr=udp%3A%2F%2Ftracker.coppersurfer.tk%3A6969&amp;tr=udp%3A%2F%2Fexodus.desync.com%3A6969","seeders":2,"leechers":0,"uploader":"basicssom","files":3,"time":1472052988,"description":"----------------------------------------------------------------\r\nThe Sighting 2015 English Movies HDRip XviD ESubs AAC New Source with Sample ☻rDX☻\r\n\r\nSCREEN SHOTS &amp; POSTER:\r\n  \nhttp://postimage.co.nr/2016/8/dongle/index.htm  \nhttp://postimage.co.nr/2016/8/dongle/1.html  \nhttp://postimage.co.nr/2016/8/dongle/2.html  \nhttp://postimage.co.nr/2016/8/dongle/3.html  \nhttp://postimage.co.nr/2016/8/dongle/4.html  \nhttp://postimage.co.nr/2016/8/dongle/5.html  \nhttp://postimage.co.nr/2016/8/dongle/6.html  \nhttp://postimage.co.nr/2016/8/dongle/7.html  \nhttp://postimage.co.nr/2016/8/dongle/8.html  \nhttp://postimage.co.nr/2016/8/dongle/9.html  \nhttp://postimage.co.nr/2016/8/dongle/10.html\r\n\r\nFormat                                   : Matroska\r\nFormat version                           : Version 4 / Version 2\r\nFile size                                : 694 MiB\r\nDuration                                 : 1 h 25 min\r\nOverall bit rate                         : 1 132 kb/s\r\nMovie name                               : The Sighting 2015 English Movies HDRip XviD ESubs AAC New Source ☻rDX☻\r\n\r\nVideo\r\nID                                       : 1\r\nFormat                                   : MPEG-4 Visual\r\nFormat profile                           : Advanced   \r\nFormat settings, BVOP                    : 2\r\nFormat settings, QPel                    : No\r\nFormat settings, GMC                     : No warppoints\r\nFormat settings, Matrix                  : Default (H.263)\r\nMuxing mode                              : Packed bitstream\r\nCodec ID                                 : V_MS/VFW/FOURCC / XVID\r\nCodec ID/Hint                            : XviD\r\nDuration                                 : 1 h 25 min\r\nBit rate                                 : 981 kb/s\r\nWidth                                    : 640 pixels\r\nHeight                                   : 352 pixels\r\nDisplay aspect ratio                     : 16:9\r\nFrame rate mode                          : Constant\r\nFrame rate                               : 23.976 (24000/1001) FPS\r\nColor space                              : YUV\r\nChroma subsampling                       : 4:2:0\r\nBit depth                                : 8 bits\r\nScan type                                : Progressive\r\nCompression mode                         : Lossy\r\nBits/(Pixel*Frame)                       : 0.182\r\nStream size                              : 601 MiB (87%)\r\nTitle                                    : ☻rDX☻\r\nWriting library                          : XviD 65\r\nDefault                                  : Yes\r\nForced                                   : No\r\n\r\nAudio\r\nID                                       : 2\r\nFormat                                   : MPEG Audio\r\nFormat version                           : Version 1\r\nFormat profile                           : Layer 3\r\nMode                                     : Joint stereo\r\nMode extension                           : MS Stereo\r\nCodec ID                                 : A_MPEG/L3\r\nCodec ID/Hint                            : MP3\r\nDuration                                 : 1 h 25 min\r\nBit rate mode                            : Constant\r\nBit rate                                 : 128 kb/s\r\nChannel(s)                               : 2 channels\r\nSampling rate                            : 48.0 kHz\r\nCompression mode                         : Lossy\r\nStream size                              : 78.4 MiB (11%)\r\nTitle                                    : ☻rDX☻\r\nWriting library                          : LAME3.99r\r\nEncoding settings                        : -m j -V 4 -q 3 -lowpass 17 -b 128\r\nDefault                                  : Yes\r\nForced                                   : No\r\n\r\nIMDB \nhttp://www.imdb.com/title/tt0848554/","torrent":{"xt":"urn:btih:2806935ba68d85db60f316f0a260a52e5b27a04f","amp;dn":"The+Sighting+2015+Movies+HDRip+XviD+ESubs+AAC+New+%2BSample+%E2%98%BBrDX%E2%98%BB","amp;tr":["udp%3A%2F%2Ftracker.leechers-paradise.org%3A6969","udp%3A%2F%2Fzer0day.ch%3A1337","udp%3A%2F%2Fopen.demonii.com%3A1337","udp%3A%2F%2Ftracker.coppersurfer.tk%3A6969","udp%3A%2F%2Fexodus.desync.com%3A6969"],"infoHash":"2806935ba68d85db60f316f0a260a52e5b27a04f","infoHashBuffer":{"type":"Buffer","data":[40,6,147,91,166,141,133,219,96,243,22,240,162,96,165,46,91,39,160,79]},"announce":[],"urlList":[]}}